/* XPM */
static char *_88757e2859e40efa51db374ea3380c1[] = {
/* columns rows colors chars-per-pixel */
"40 40 48 1 ",
"  c black",
". c #0C0C0C",
"X c #151515",
"o c gray11",
"O c gray13",
"+ c gray15",
"@ c #2A2A2A",
"# c gray18",
"$ c #313131",
"% c #343434",
"& c gray26",
"* c #444444",
"= c #4B4B4B",
"- c gray30",
"; c gray32",
": c #565656",
"> c gray37",
", c #646464",
"< c gray42",
"1 c #6D6D6D",
"2 c #727272",
"3 c #747474",
"4 c gray47",
"5 c gray49",
"6 c #838383",
"7 c #848484",
"8 c gray56",
"9 c #939393",
"0 c #959595",
"q c #9D9D9D",
"w c #A0A0A0",
"e c #A5A5A5",
"r c gray66",
"t c #AEAEAE",
"y c gray70",
"u c #B7B7B7",
"i c #B9B9B9",
"p c #C1C1C1",
"a c #C5C5C5",
"s c gray79",
"d c gray81",
"f c #D0D0D0",
"g c gray84",
"h c gray85",
"j c gray87",
"k c gray90",
"l c gray92",
"z c #F1F1F1",
/* pixels */
"                                        ",
"                                        ",
"                                        ",
"                                        ",
"                                        ",
"                                        ",
"                                        ",
"                                        ",
"                                        ",
"                                        ",
"                                        ",
"                                        ",
"                                        ",
"                                        ",
"       oOo    XOoOX  .OoOX  .OoOo       ",
"             .     ..     ..            ",
"       8rq$ X 2ter4  ,rer7  ,eer9       ",
"    . $ltl< o 3tqfd  ,twaj  ug0ul@ .    ",
"      +8 g2 .X   4d @   ;g  t9 oj$ .    ",
"         h1 o >puhs  -iifh .#% ;j$ .    ",
"       O j2 X ;rqds .&eqpg o   =j$ .    ",
"       . g: XX   4d @   ;g X.. =j$ .    ",
"        8zu@  3tqff  ,twaj o . -k$ .    ",
"        wyt*  5iyu6  1iyu9 .   $0o      ",
"             .     ..     .             ",
"        oOO   XOOOX  .OOOo      o       ",
"                                        ",
"                                        ",
"                                        ",
"                                        ",
"                                        ",
"                                        ",
"                                        ",
"                                        ",
"                                        ",
"                                        ",
"                                        ",
"                                        ",
"                                        ",
"                                        "
};
