/* XPM */
static char *f7f10eebc2f04031c083c1d48b90ce072J3ZE4FyXMd6k1Li[] = {
/* columns rows colors chars-per-pixel */
"64 64 256 2 ",
"   c None",
".  c #063A37",
"X  c #07253A",
"o  c #01493B",
"O  c #015936",
"+  c #034E2E",
"@  c #006C3B",
"#  c #006634",
"$  c #006E39",
"%  c #042D46",
"&  c #093549",
"*  c #0A3356",
"=  c #163252",
"-  c #19346A",
";  c #1C3A7C",
":  c #183777",
">  c #0E316A",
",  c #233A79",
"<  c #253A69",
"1  c #273A55",
"2  c #044A46",
"3  c #045844",
"4  c #18584A",
"5  c #104F55",
"6  c #275C47",
"7  c #254A56",
"8  c #29555B",
"9  c #355151",
"0  c #027842",
"q  c #1A6A55",
"w  c #0C6F50",
"e  c #236749",
"r  c #29795C",
"t  c #2D6C55",
"y  c #075967",
"u  c #175577",
"i  c #114D70",
"p  c #26467A",
"a  c #354A77",
"s  c #285878",
"d  c #31526A",
"f  c #056967",
"g  c #067877",
"h  c #17797A",
"j  c #136D6C",
"k  c #386363",
"l  c #2E736F",
"z  c #4A5552",
"x  c #4F665C",
"c  c #466567",
"v  c #537070",
"b  c #68787A",
"n  c #6D766D",
"m  c #52636C",
"M  c #76CA3D",
"N  c #028847",
"B  c #01944C",
"V  c #019C4D",
"C  c #0B934E",
"Z  c #178653",
"A  c #049955",
"S  c #0D8D57",
"D  c #24875C",
"F  c #00A44C",
"G  c #00AA4C",
"H  c #00A846",
"J  c #01A452",
"K  c #01AC52",
"L  c #0BAD54",
"P  c #03AC5B",
"I  c #0DAE5A",
"U  c #06A45B",
"Y  c #10AE5C",
"T  c #14A55E",
"R  c #00B252",
"E  c #0DB35C",
"W  c #0BB152",
"Q  c #058965",
"!  c #049765",
"~  c #058978",
"^  c #109174",
"/  c #318C69",
"(  c #03AB63",
")  c #06AA68",
"_  c #18B166",
"`  c #06AB75",
"'  c #16AE70",
"]  c #27B469",
"[  c #28B57A",
"{  c #38B778",
"}  c #2DAF6F",
"|  c #25B94A",
" . c #4F8A6F",
".. c #738675",
"X. c #45BC7A",
"o. c #53BE7D",
"O. c #7D8257",
"+. c #66C650",
"@. c #34C070",
"#. c #AAC536",
"$. c #F6D709",
"%. c #F5D819",
"&. c #F5DB28",
"*. c #F5DE38",
"=. c #EFD72B",
"-. c #DED938",
";. c #8B8C59",
":. c #A5A166",
">. c #9FD458",
",. c #EDDC51",
"<. c #F5E148",
"1. c #F5E458",
"2. c #F5E667",
"3. c #F2E876",
"4. c #D9D463",
"5. c #B7B354",
"6. c #1B3D84",
"7. c #293C84",
"8. c #17478B",
"9. c #185986",
"0. c #115393",
"q. c #294686",
"w. c #354C85",
"e. c #395487",
"r. c #2B5794",
"t. c #395799",
"y. c #29508E",
"u. c #186B95",
"i. c #386896",
"p. c #2F6C8E",
"a. c #1B5BAA",
"s. c #1959A7",
"d. c #174FA3",
"f. c #2A5BAB",
"g. c #2459A8",
"h. c #3B5BA2",
"j. c #255AB1",
"k. c #1B6BAC",
"l. c #2469A7",
"z. c #3564AA",
"x. c #2D74B0",
"c. c #465C8C",
"v. c #435C98",
"b. c #476587",
"n. c #4A6598",
"m. c #556B97",
"M. c #477A99",
"N. c #5A7598",
"B. c #527389",
"V. c #667999",
"C. c #6B7A89",
"Z. c #465DA4",
"A. c #4764A5",
"S. c #4A79A7",
"D. c #5A75A6",
"F. c #4F72B1",
"G. c #667AA5",
"H. c #687DB1",
"J. c #357AC0",
"K. c #168A84",
"L. c #2C938D",
"P. c #06A986",
"I. c #1BB387",
"U. c #14AF8C",
"Y. c #27B687",
"T. c #37B989",
"R. c #38A997",
"E. c #31B394",
"W. c #3783B4",
"Q. c #4F8D94",
"!. c #788687",
"~. c #6D8F93",
"^. c #46BA9A",
"/. c #4CB08E",
"(. c #6DB393",
"). c #5889A6",
"_. c #588AB7",
"`. c #4C8CB0",
"'. c #7388A7",
"]. c #6998AA",
"[. c #6984B5",
"{. c #779AB7",
"}. c #718FB1",
"|. c #4FB5A5",
" X c #72AEAF",
".X c #39C29A",
"XX c #55C292",
"oX c #64C48D",
"OX c #69C696",
"+X c #7BC89D",
"@X c #69C8A6",
"#X c #76CBB0",
"$X c #57C4A6",
"%X c #5590C2",
"&X c #6897C4",
"*X c #749CC4",
"=X c #6E88C1",
"-X c #7BA6CA",
";X c #6DA2C9",
":X c #899995",
">X c #919D9B",
",X c #83928D",
"<X c #91A39D",
"1X c #8A9AB8",
"2X c #8492AB",
"3X c #96A6A4",
"4X c #88A8BB",
"5X c #98A6BC",
"6X c #89B7B7",
"7X c #A9B3B0",
"8X c #8ECEB3",
"9X c #ABD0B9",
"0X c #80C89F",
"qX c #E4DD8F",
"wX c #F2E78F",
"eX c #F0EBAE",
"rX c #DADC9E",
"tX c #899EC6",
"yX c #88AAC8",
"uX c #96A8C6",
"iX c #98B7CA",
"pX c #97B6D4",
"aX c #8BAED3",
"sX c #A8B8C9",
"dX c #A7BBD6",
"fX c #ACB5C9",
"gX c #9CBEE1",
"hX c #98C9CA",
"jX c #A5C5CA",
"kX c #BBC7CA",
"lX c #AAC3D6",
"zX c #B6C9D8",
"xX c #B1D6CC",
"cX c #B4E1D1",
"vX c #B4CBE3",
"bX c #CAD6CD",
"nX c #C4CBD8",
"mX c #C9D7D8",
"MX c #D5DBD8",
"NX c #CACEC7",
"BX c #DAE2DB",
"VX c #D2E4D2",
"CX c #EBEAD5",
"ZX c #C8D8E3",
"AX c #D4DDE6",
"SX c #CDDEF5",
"DX c #DBE4E6",
"FX c #D5E6F0",
"GX c #E6E9E8",
"HX c #EBF1EB",
"JX c #F3F6ED",
"KX c #E7EAF3",
"LX c #FAFCF5",
"PX c #FEFEFD",
"IX c #F4F7F5",
"UX c #EEF3F5",
/* pixels */
"            z z z x ,X3XNXNXMXMXMXMXbXbXNXMXMXMXMXMXMXbXMXbXMXMXbXnXmXAXGXBXGXGXBXBXBXBXmX  MXBXMXbXNX7X>X..m z z z             ",
"              7 X X = < 1 a a a a < < < < a a a < a a a , w.a e.2XV.w.w.w.w.p a e.w.c.w., < a a a a a a < 1 = X z               ",
"              z 9 1 1 9 9 z z 1 z d z x z d : : : 6.- w.v.6.6.uXpXy.y.7.6.6.q.v.6.6.; 6.7.q.; : ; : ; - - - > * <               ",
"          !.v c n m m m b ..b V.!.m.;.b C.F.j.j.j.j.j.pX*Xd.&XPXaXd.f.f.z.z.F.*Xf.f.f.f.f.f.f.f.f.f.g.g.d.r.d.d.6.y.S.          ",
"        m.s k a e.e.r.y.y.d.n.}.z.b.h.z.).[.h.h.m.n.D.F.x.z.gXUXpXF.z.f.j.pXF.d.z.f.f.f.f.f.f.f.f.g.g.s.g.s.d.d.d.0.0.z.        ",
"      m x n n O.v v ;.n w.m e.n n.;...v m O.b.O.;.v ;.F.j.pXaXvX%Xj.f.j.F.aX;XF.g.f.g.g.g.g.f.j.g.g.g.a.g.g.d.d.d.d.8.8.r.      ",
"  N.d 7 d a p e.e.r.p.b.d.n.D.N.i.i.t.).S.).}.).'.}.M.%XJ.ZXpXlXpXx.%X-X&Xx.j.j.a.a.a.a.a.g.a.a.s.s.a.s.s.s.s.s.d.0.8.8.p 9.).  ",
"  m b.m.m.m.v.[.[.D.[.F._.J.`.gX&Xx.x.&XpXgXaXlXpXaX;XaXZXaX;XSXUX;X%XgXSXk.a.j.k.a.a.a.a.a.x.k.a.k.a.a.s.s.a.s.a.&X0.; , - p   ",
"m 1 d d B.w.e.m.).D.V.A._._.[.vXpXyX-XaXdXyX%X*XpXaX-XpXdX*X&X%XvX%Xs.gXPXKX%Xx.k.k.J.k.x.W.x.k.k.k.l.a.s.0.0.0._.4X9.i - = = a ",
"1 X 1 * * i u 9.p.r.i.x.W.`.`.-XiX;X%X&X_.&X*X&X*X*X*XyX-X-XaX-XaX-Xk.;X;X    %Xk.W.W.W.k.W.k.x.l.r.l.u.u.0.0.].i.p.W.> = = & d ",
"7 X & = * u i u 9.r.i.`.S.S.S.}.yX).;X{.yXaX&X{.*XyXpXiXpXpXlXvXlXpX%XZXjX`.hXPXFX;Xk.W.`.k.l.l.k.s.0.0.0.Q.].p.i p.Q.* = * % d ",
"7 X % * d i u 9.M.M.i.i.S.).).).dXiX*XyXlXZXyXyXyXyXlXlXzXlXlXZXUXKXSXJXCXAX-XyXmXLXFXgX;XW.u.k.x.i.`.{.4X`.0.i 8.9.B.i * * % k ",
"7 X % & 5 i 9.y.i.).M.S.S.)._.). XSXlXyXzXGXvXaXaXpXdXdXvXSXSXKXCX3.wXVX3.eXCXxX`.%XhXFXGXDXFXZXxXxXyX).u.i 0.0.u s ).5 * * % d ",
"7 X & & * y u 9.p.Q.{.).).)._.}.{.mXUXZXzXvXmXzXzXvXmXNXqX3.2.1.&.$.wX@XM 3.eXJX-XW.W.W.W.`.`.W.x.u.u.0.u.9.9.i u u '.i * * % 8 ",
"9 & = 7 d u u p.p.M.`.). XyX4XyXiXzXvXDXZXzXvXAXeXqX1.<.&.*.&.&.%.%.CXXXE >.2.3XA.A.*X%XW.W.k.k.u.u.u.u.0.9.9.9.u i }.s * & % 7 ",
"8 X 5 7 u s y.).].).].{.sXiXjXsXiXuXsXxXFXKXeXqX<.2.2.<.2.1.&.<.%.<.GX@.W { 1.~.=X[.A.-X%X`.L.k.u.u.u.u.: : > i 0.i ].B.% & % 8 ",
"c 7 k 8 s s 9.).).). XuXiX6XiXuXiXiXjXzXDXqX<.1.<.*.1.3.*.1.1.&.$.eXDXo.X.' 4.>XF.FXZ.F.-X&Xz.t.l.u.9.e.5XnX2X, p y M.:X% & % 7 ",
"k 7 d c l '.{.).{.].).]. XdXlXdXzXmXzXVXwX1.2.1.2.1.*.<.<.<.2.<.<.JX8XoXOX' >.4.Z.UXzXt._.D.uXuXr.r.D.UXIXPXPXm.: i j 7Xi % % 8 ",
"9 x 8 5 v p.Q.Q.). X{. XsXzXjXxXDXAXDXqX1.2.3.2.3.2.1.*.2.wX*.%.CXDXoXoXOX@.+.3.A.KXPXtXH.AXPXuXq.A.PXnXq.nXPX2Xi j y 1Xv % & 8 ",
"8 7 b k ~.].Q.M.).].{.4XzXzXjXzXZXDXeX2.<.2.1.1.2.3.2.3.2.1.&.wXUX8XoXoXoX} >.4.A.UXPXIXIXPXAXv.t.ZXPXtX- uXPXG.> y i Q.3X& & 8 ",
"k 9 c k B.].l p.Q.].{.6XiXiXjXzXzXDX2.1.1.1.*.1.1.3.<.1.<.$.3.UXcXX.o.oXX.{ 4.:.F.PXPXPXPXzXv.y.H.PXPXzX> uXIX, p e.i y 7Xk . 8 ",
"k 1 k 8 v Q.l u.`.).Q.yXjXiXjXzXZXrX*.<.<.1.<.<.<.<.*.&.$.,.KXVXo.X.oXoXX./.<.C.pXPXPXPXPX[.t.t.tXPXPXUX7.fXV.> m.G.i 5 ~.>X& 8 ",
"8 X 7 7 8 j Q.iX6X X).hXzXjXmXZXFXrX&.*.&.&.*.&.&.&.%.$.3.AXBXoXo.OXoXX.[ >.5.Z.UXPXPXPXPXKXv.r.uXPXPXPX}.n., : 1X'.i y s 3Xk 8 ",
"k . o & 5 q p.p.Q.iX6XjXzXjXxXHXKXrX$.&.%.%.%.&.%.$.%.rXKXmXX.] X.] X.@.+.2.F.nXdXZXPXIXPXPXfX7.1XPXPXPXDX7.< , nXc.i l 2 ..!.k ",
"k . . o 8 j j y u.L.L.dXcXZXZXFXDXbX%.$.%.%.%.%.$.,.MXGX9X] L ] ] ] ( +.,.N.F.H.t.H.PXPXPXPXPXF.D.LXPXPXPXAX5X  2Xi f Q.2 2 ,X!.",
"8 . . . 3 5 Q.6X9X X6XjX].#XzXmXmXGX,.$.%.$.$.=.rXKXGX(.L Y Y W R W #.4.n.dXAXt.A.Z.dXPXPXPXPXZXy.sXPXPXLXPXPXBXa y f 5 2 c ,X>X",
"k . o & 5 f h Q. X`.L.Q. X XxXBXmXMX1.$.$.%.qXCXKX9X] H K K A T +.-.:.D.SXPXPXyXt.Z.D.HXPXPXPXPX}.y.fXIXPXLXfXm.Q.^ f j  .7X,Xv ",
"9 . o o 2 w j y f f g g g u.L.`.hXAX,.=.qXCXKXxXX.F F L L | M #.;.v H.IXPXPXPXUXF.Z.h.tXPXPXPXPXKXt.7.m.G.c.8.Q.6X`.~.6X7X>X7 t ",
"6 . o 2 2 j h j f L.h h g K.h f g 6XBXBXGX9X/.G H | +.M #.#.O.V.tXSXH.DXPXPXPXPXzXh.Z.Z.ZXPXPXPXPXfX7.q.x.].K.g ].NXNXNX<X4 . l ",
"4 . o 2 5 y h h h K.~ h f K.|. XbXMXMXMXrXqX>.4.4.4.;.n a t.vXUXPXPX1X}.PXPXPXPXPX[.Z.h.[.PXPXPXKXtXq.y.|.|.~ ^ 8XMXkX].Q.o o l ",
"8 . o 2 3 f f f L.~ ^ ).6XkXBXBXjX/.L.R. X8X9X9X!.q.A.A.7.1XPXPXUX[.t.t.nXPXPXPXPXAXZ.A.v.dXPXfXt.y.W.P.R.L.|.MXMX6XK.L.v 2 . l ",
"4 . o o 5 h / ~.<XkXMXBXmX8X|.^ ~ Q ~ ~ ~ ~ 9.p v.DXPXPXKXKXPXPX1Xq.v.Z.D.IXPXPXPXPXtXh.Z.D.H.t.`.R.E.|.8XkXCXjXQ.^ L./.l 2 o l ",
"x t v ..3X7XNXbXNX8X(.L.g u f ~ ~ ~ ~ K.~ g p 6.t.fXLXLXPXPXPXPXZ.t.v.v.h.iXPXPXPXPXIXF.Z.Z._.hX#XE.|.lXGXmX XL.K.L.K.^ q 2 2 l ",
"....:X:X>X(.Q./ f f y e.t.w.y.~ ~ ~ K.f u y.n.c.7.> '.LXPXPXPXPX=Xy.v.Z.Z.A.GXPXPXPXvXD.z.L.#X|.P.|.DXKX8X^ ~ /.|.R. X/./ k 2 r ",
"v x 4 4 3 0 w f i '.nXJX  m.p h ~ g p V.fXUXLXIXAX1X6.1XLXPXPXPXKXv.t.v.A.Z.[.PXHX=Xh.W.E.P.P.R.xXIXhXR.R.L.L.^ } ^ ^ / q / 3 q ",
"/ x + o 3 w f e.nXPXLXLX  4Xa y.8.w.fXPXPXLXPXLXPXPXnXw.MXPXPXPXPXdXt.v.Z.Z.A.tXA.l. XcX|.P.|.UXDX#X^.^.|.Y.R.^ |.L.^ w w 4 3 q ",
"t n @ o w 3 a MXLXmX2XV.N.'.e.: V.GXPXDXm.c.fXPXLXIXPX1Xm.PXPXPXPXPXG.t.A.A.Z.t.{.$XU..XhXcXHXhXU.|.$X|.U.! ^ ^ ^ Q Q ^ r 2 O q ",
"q x t + 3 5 5XJXnXa - p p p e.sXPXPXPXnX: w.; fXPXLXLXKX7.fXPXPXPXPXKXA.A.Z.z.R..XhX#XhXIXHX#X` P.` ^ ` ! ^ T Q Q Q Q w w 2 3 j ",
"e t n O 3 a MXJX5X> a w.a q.'.HXLXLXPXLXm.q.7.e.JXPXLXPXv.c.HXPXPXPXAXZ.h.L.P.U.P..XLXLX#X.XcX$X` ` ~ ~ ! T. XL.Q Q Q 0 3 O O r ",
"t O ..O O a MXGXMX'.p p p q., c.MXPXLXPXfX8.q.; fXPXLXLXn.: 1XPXPXdXt.Z.L..XP.P.@XJXVXhX^.P.@XGXE.` ` ` A ! T.' Q Q Q S w O O r ",
"t + ..@ O a MXGXGXIXDXkX2Xe.e.; G.JXPXLXPXG.; ; '.PXPXGXq.7.w.AXuXy.h.R..X.XY.cXJX.X$X#XI..XP.T.@X` ` ) ) ! ! ! ! Q ! Z w # O r ",
"t + ..t O < fXHXGXGXJXLXLX    m.p kXLXLXPXmX7.; N.PXPX1X: q.w.v.w.i.Y.E.U.$XHXcXU.U.I.Y.I.` Y.I.@X) ' ` ' ! ! Q A N C 0 @ $ O q ",
"r + c v # - C.GXJXJXJXHXHX    PX1Xm.IXPXIXPX'.> D.PXnX7.u ! y.7.u.Y.T.E.9XLXcXY.P.Y.I.Y.Y.I..XXX8X' Y.P ) ( ' { A A N N @ $ O r ",
"r + e  .# 4 - B.fXMXGXJXLX    LXPXN.sXLXIXPXKX6.1XbX7.u ) P Q h E ( ` cXHX$XOX#X$XY.@XhX@X.XXX.XcX@X[ [ /.A T.OXU T ^ 0 $ @ O D ",
"t + @  .$ N q - , , c.2XkX    LXPXfXb.JXPXLXPX1XG.q.u ( P ! P ( ( ) cXDXI.T.#X#X#X#X#XT.$X( ` ' $XXX( [ } ( A { T } { 0 0 @ # r ",
"r + O ..$ N N w j i < , a sX  IXPXmX, sXPXLXPXIXw.6.j R ( U ( ( _ DXcX@XXX@XI.) [ $XcXY.T.) ( ( P 8XOX( ) J J V B B B N 0 # # D ",
"/ + O  .0 N N V V A C s , N.  LXPXnX, m.HXPXLXPXfX; q.A J ( J ] GXcX) ( T.@X` I..X( T.XX[ XX( ' ' OX8X' E ] { J V A C S 0 @ # D ",
"r + O  .w N B B F G G j , N.  IXPX1X, q.5XPXLXLXIXc., j K A ' DX8X( ' T.OX( [ Y.[ ` ` XX@X#XT._ P ( cXOX/.{ U F K T } S 0 0 # / ",
" .O # x w N N q j y y a 2X    PXKXc.q.p c.GXPXPX5X, u J V ] GX9XR ( _ #X[ [ #X' [ T.` ' ) 0X[ ( ( _ 8X8XoXF F A F L o.S 0 0 # / ",
"r + # / Z N C - G.5XfXDXLX      N.q.A ^ , 1XPXfX< p U G L VX9XG P ( ( _ ( T.' ) ) ) ) ( T.8X' ( P R @.cX{ F { L _ U F N N $ @ D ",
"@ # # / Z N V > V.LXLXJXJX    G.p S G K p c.fXq.p C F F xXbXL K P E ( P ( ( P ( ( ) ` ( E XXOXP K P R X.OXL U Y X.] L B N 0 @ / ",
"e # # x Z B B - a GXIXLXGX7Xc.u J R K R Q 7.p , Q G V 8XBX_ G K P P P ( ( E ] /._ E E E E ' +X+XXXK K G ] L F J V T T C 0 0 @ / ",
"w # # / $ C V 8 , sXNX2Xc.u S R R K K K K s 7.j J V (.GXX.H K K R K P P I E Y ] _ Y Y W ] { { X.o.W G K G K J J J J F B N 0 $ / ",
"e # #  .Z B F 5 i s 8 w B G R G K G K K R S p L H X.CX+XH K K K K R P P I Y Y I E E Y E _ ] K G G K R K K K J J J J J V N 0 0 / ",
"Z # # D N B C T } } } @.{ } ] E R G H H F H F H T MX9XW G K K K R K K L I Y Y Y Y Y Y Y Y L I L K K K K K K K J K F J A N N 0 / ",
"Z # $  . .o.(.(.(.(.(.+X0X0X8X8X9X9X8X8X+XoXX.] 9XGX{ H K K K K K K G L L Y E I Y Y I Y L L W K K K K K K K J J J J J J N N $ Z ",
"r # $ Z Z A A F V H H G G G G K I _ ] X.oX0X8X9XBX0XG K K R K K K K K L I Y E Y Y Y Y Y L L K K K K K K K K J J J J K V N 0 0 Z ",
"Z # $ $ N B J J F V J K K K K K G K G H H G G K _ I G K K K K K K K K K L Y Y I Y Y Y E L W W G K K K K K K J J J J J A N N 0 C ",
"Z # # $ N B J J J J J K K K K K K K K K K R K K G G K K K K G R K K K L L Y Y I Y Y Y Y L L K K K K K K K K J J J J J V B $ 0 Z ",
"  e r r N B K R F F K K R R R R R R K R K K K K K J G K K K R R K K K G L I Y Y Y Y Y Y L L K K R R R R R R G G F F J C D D     ",
"        ~... . ./ / Z C B B V F H F G G R G G R R G K R R R R R R R W W R E E E Y Y Y Y L L F F F V C C S S D /  ./.(.<X        ",
"              ..!.:X<X:XC.n c x k 9 6 9 6 6 6 6 6 e 4 e 4 e e e e e e t e 6 e e 6 6 6 6 6 6 9 c c x b b !.!.,X,X,X              ",
"                  x !.3X3X3X3X3X<X:X,X,X!.C.b !.b b n n b n b ..!.!.b C.C.n b C.!.!.!.,X:X:X:X<X3X3X<X:X,X..v                   ",
"                                >X>X>X>X>X>X:X:X:X:X!.!.,X:X~.:X<X<X3X3X3X3X3X3X3X3X3X3X3X>X>X:X                                "
};
