/* XPM */
static char *c6dc1c3f5d474f8d825c258843e5237fbZCwWWfjjtAfugTb[] = {
/* columns rows colors chars-per-pixel */
"64 64 256 2 ",
"   c None",
".  c #072A15",
"X  c #033919",
"o  c #13341E",
"O  c #062A12",
"+  c #0E3D21",
"@  c #133822",
"#  c #122E1D",
"$  c #02441C",
"%  c #014A1A",
"&  c #004616",
"*  c #00531D",
"=  c #085C1E",
"-  c #074A24",
";  c #16472A",
":  c #025422",
">  c #015B25",
",  c #06592A",
"<  c #174D31",
"1  c #175735",
"2  c #10582E",
"3  c #265839",
"4  c #254C33",
"5  c #01622C",
"6  c #036929",
"7  c #03792C",
"8  c #19782B",
"9  c #056934",
"0  c #186638",
"q  c #037C33",
"w  c #047939",
"e  c #197231",
"r  c #296F36",
"t  c #2B7318",
"y  c #487711",
"u  c #19317A",
"i  c #102977",
"p  c #253872",
"a  c #102D54",
"s  c #0E5355",
"d  c #32544A",
"f  c #177A43",
"g  c #0B704D",
"h  c #286746",
"j  c #326947",
"k  c #287547",
"l  c #347849",
"z  c #387856",
"x  c #2B7155",
"c  c #105270",
"v  c #2E4B71",
"b  c #3C7368",
"n  c #156C6B",
"m  c #455D52",
"M  c #486A58",
"N  c #455B70",
"B  c #52786B",
"V  c #647C6E",
"C  c #04853A",
"Z  c #11893A",
"A  c #2B8432",
"S  c #1D841C",
"D  c #4E8513",
"F  c #679135",
"G  c #038443",
"H  c #068946",
"J  c #188547",
"K  c #049448",
"L  c #159653",
"P  c #278949",
"I  c #2A8857",
"U  c #388554",
"Y  c #379659",
"T  c #2C9252",
"R  c #08A756",
"E  c #07B454",
"W  c #2EA25A",
"Q  c #368F6A",
"!  c #38B977",
"~  c #2FAE69",
"^  c #169C66",
"/  c #498A5D",
"(  c #498868",
")  c #479968",
"_  c #56916F",
"`  c #678475",
"'  c #689278",
"]  c #48A868",
"[  c #4AB876",
"{  c #58B675",
"}  c #50B06F",
"|  c #65B97B",
" . c #60A971",
".. c #729641",
"X. c #00C85B",
"o. c #02D667",
"O. c #16C86E",
"+. c #2FCD75",
"@. c #33EB7E",
"#. c #00E36C",
"$. c #56C77A",
"%. c #4DCA77",
"&. c #65C57E",
"*. c #A6AA2D",
"=. c #C9BB10",
"-. c #C7B925",
";. c #DBC405",
":. c #E5CC02",
">. c #EBD20E",
",. c #D8C92B",
"<. c #9BA271",
"1. c #AEAF5F",
"2. c #143486",
"3. c #103690",
"4. c #0C38B1",
"5. c #233A98",
"6. c #1D4699",
"7. c #0B4991",
"8. c #274C94",
"9. c #2B5688",
"0. c #134EAF",
"q. c #2E4FAA",
"w. c #34689C",
"e. c #435D91",
"r. c #486F85",
"t. c #4F6DB3",
"y. c #6279A1",
"u. c #0638C5",
"i. c #084ECC",
"p. c #3676D5",
"a. c #516FC3",
"s. c #58878D",
"d. c #758A87",
"f. c #779488",
"g. c #729092",
"h. c #54AF8D",
"j. c #6DB48A",
"k. c #598CA6",
"l. c #718DB3",
"z. c #74B5B2",
"x. c #37ED83",
"c. c #36F082",
"v. c #59C783",
"b. c #5BD682",
"n. c #48D885",
"m. c #6DCC8A",
"M. c #6AC885",
"N. c #72C78B",
"B. c #64D48A",
"V. c #6DD48B",
"C. c #6CDB8D",
"Z. c #65D586",
"A. c #71D78D",
"S. c #6BDC92",
"D. c #74DB92",
"F. c #7CDC95",
"G. c #78D595",
"H. c #71C695",
"J. c #5AF592",
"K. c #52EB89",
"L. c #68E58D",
"P. c #6CEB94",
"I. c #6DE594",
"U. c #73E493",
"Y. c #73EB95",
"T. c #74ED9B",
"R. c #7CEC9B",
"E. c #7CE498",
"W. c #6AF898",
"Q. c #7AF49D",
"!. c #7AFB9F",
"~. c #74F89A",
"^. c #72E58A",
"/. c #7CFDA1",
"(. c #79F9A1",
"). c #76C0BD",
"_. c #7194CE",
"`. c #77B2C6",
"'. c #77ABD0",
"]. c #5189F4",
"[. c #6E97EE",
"{. c #6494E4",
"}. c #7BCAC8",
"|. c #3CA18F",
" X c #879893",
".X c #8EA697",
"XX c #8499B1",
"oX c #97AAA7",
"OX c #8CAEBC",
"+X c #AAB9B1",
"@X c #A4B093",
"#X c #83EC9E",
"$X c #81E59B",
"%X c #80FF99",
"&X c #90CEAB",
"*X c #B1C9B5",
"=X c #88EAA5",
"-X c #83F4A2",
";X c #82FDA4",
":X c #84FDA9",
">X c #8CFEAC",
",X c #8AF7A7",
"<X c #92FDAF",
"1X c #95F6AD",
"2X c #94FEB1",
"3X c #9CFEB4",
"4X c #9CF6B3",
"5X c #95ECA9",
"6X c #A7E6BA",
"7X c #A2FEB6",
"8X c #A4FEBA",
"9X c #ABFEBC",
"0X c #A4F5BA",
"qX c #B2FEBD",
"wX c #B9FFBD",
"eX c #81DB9E",
"rX c #C7D5B4",
"tX c #E7ECB2",
"yX c #92B1CB",
"uX c #AABCD1",
"iX c #85A9EB",
"pX c #96B4FC",
"aX c #90B2F6",
"sX c #879CC0",
"dX c #90C3CB",
"fX c #A3C5C4",
"gX c #B5CDD1",
"hX c #B8E4CA",
"jX c #AEFEC1",
"kX c #B3FEC3",
"lX c #BAFEC5",
"zX c #BCFECB",
"xX c #B6F7C8",
"cX c #A8E6C1",
"vX c #A9C7FB",
"bX c #B4CFF1",
"nX c #C6DAD3",
"mX c #C2FECE",
"MX c #C4FED2",
"NX c #CBFED5",
"BX c #CCFCD9",
"VX c #D3FEDD",
"CX c #D9FFDD",
"ZX c #CCE5D1",
"AX c #C9DCF2",
"SX c #DBFEE4",
"DX c #D9FCE3",
"FX c #D8E6FE",
"GX c #D2E7F3",
"HX c #E4FEEB",
"JX c #E6FCE9",
"KX c #ECF9F7",
"LX c #FEFEFE",
"PX c #F4FCFA",
"IX c #EDF6F3",
"UX c #F5FCDF",
/* pixels */
"                                            w f H G H H G G G g C w 9 9 9 2                                                     ",
"                                          L C G H K K L K K G G G w w w 9 , , j                                                 ",
"                                        Q C C G K ^ h.^ K K C C G G w 9 9 5 : 1                                                 ",
"                                        / h : - 6 f U L 9 > 5 > 6 6 5 > - X h x                                                 ",
"                                          oX- & 6 6  .&XI , * = 6 q 7 6 : X d.                                                  ",
"                                            2 7 C C E X.E E E X.o.E R K C ,                                                     ",
"                                          U q E X.X.X.#.o.o.o.#.#.#.X.X.R q 1                                                   ",
"                                        [ +.@.@.@.@.@.c.@.@.@.@.@.@.@.@.@.@.+.!                                                 ",
"                                    N.%.@.K.K.K.K.J.J.J.J.J.J.J.J.J.J.J.J.J.K.@.%.{                                             ",
"                                  m.$.$.J.L.J.W.J.W.J.W.W.W.W.W.W.J.W.W.W.W.W.P.Z.$.$.                                          ",
"                                Z.b.L.W.W.W.W.W.W.P.W.P.W.W.(.~.W.W.!.~.W.W.~.W.Y.P.Z.$.j.                                      ",
"                            F.Z.P.W.W.!.~.P.P.Y.W.P.P.P.P.P.P./.~.P.P././././.(.!.~.R.Y.Z.M.                                    ",
"                          D.C.Y.!.!.!.!././.;X/.:X/.:X/./.:X:X/./././.;X;X;X/./.!.!.!.Q.T.L.M.N.                                ",
"                      $XF.Y./.;X;X>X>X2X2X2X2X2X2X2X2X2X2X2X2X2X2X2X>X2X2X<X<X2X<X<X>X>X;X;XQ.C.G.                              ",
"                  0XE.C.^.P.P.^.U.^.C.C.S.C.C.B.V.B.B.B.B.Z.B.B.B.B.B.B.B.S.S.S.S.S.U.S.U.P.I.L.Z.M.G.                          ",
"                / 0 * > 0 T Y W W ] [ } %.[ $.$.v.b.v.B.B.m.m.m.V.V.V.V.V.V.V.B.Z.b.b.$.%.} ] ] T J 0 0 (                       ",
"            ` 3 O O 1 / { &.m.C.Y.R.Q.-X;X>X<X<X<X7X7X7X9XqXqXqXkXqX9XqXkXqXqXqX9X9X7X7X<X,X-XE.A.&.] l 0 r                     ",
"        ` d O O 3 { &.D.^.^.Y.Q.Q.-X:X<X2X3X3X7X7X9X9X9X9X9X9X9XqXqX9X9XqXqXkXkX9XwXqXqXwX9X7X2X>X;X#XF.&./ 3 d                 ",
"     Xm o . O r m.A.D.^.Y.R.-X;X<X2X2X3X3X3X7X9X9X9X9XqXqXqXkXkXkXkXkXkXlXlXzXzXlXzXlXlXlXlXqXqX9X2X>X-X$XE.M.j @ m             ",
"   X4 O O # 4 | A.C.Y.^.Q.;X;X3XNXSXJXPXJXJXJXVXkX9XkXkXqXkXkXkXkXkXlXkXzXmXzXzXzXzXlXlXlXlXlXkXqX9X3X>X;XR.A.N.j # m           ",
"*XM X @ o ; U &.A.A.U.E.(.-X/.zXSXHXPXLXLXLXLXPXNX9X9XjXxXjXxXwXkXqXkXxXxXzXzXzXzXmXmXzXzXxXlXkX9X7X3X>X,X(.E.S.] x 9 }         ",
"*Xf * % 4 2 / A.^.^.Q.%X!.;X:XzXCXJXJXLXLXLXPXJXVX9XqXwXqXwXwXmXlXmXmXwXMXMXBXCXDXCXCXVXCXDXCXNXNXmXxXxX9X3X:X(.n.! X.+.        ",
"  ( j x N B ' j.z.).).).}.}.}.bXFXAXFXFXFXKXFXGXbXdX`.'.`.`.z.z.z.'.z.OXyX*X&XdXfXOXyXfXfXfXdX+XfXOX&X*X&X&X&XG.m.v.! S.        ",
"+Xe.u 5.6.4.q.0.v N N N N q.B s.XXyXyX+X*XuX+XiXXX Xk.V V V V B B M M m q.XXXXq.6.4.6.3.3.3.3.3.2.2.i 2.i 2.u p p 9.d y.        ",
"oXv a 2.3.3.4.4.3.6.6.6.8.0.p.].[.iXiXpXvXaXgXAXGXZXrX*XgX*X@X@X<.<.<.<..X+X*X@XXX.Xe.6.5.5.6.3.5.3.2.2.u u u u u p p r.        ",
"l.v i i 3.3.4.4.4.4.0.i.i.i.i.].[.[.[.pXvXFXLXLXPXGXnX*X1.-.-.-.=.=.=.;.:.-... XgX+X Xe.8.6.9.8.8.2.2.2.i u u u p p m d.        ",
"d.v a i 7.7.7.7.7.0.0.7.7.0.p.{.iXpXvXFXIXLXLXLXPXrX,.:.>.:.;.=.:.:.-.*.F w Z k.a.a.nX+Xg.r.9.w.v c v v c u u p p p d d.        ",
"d.a a a c n n 7.r.g.r.k.k.k.z.uXbXGXKXLXLXLXLXLXtX>.>.>.,.*.*.*.F r 6 6 g Q l.uXsXl.l.t.l.w.9.v n c v s s s s s d v a V         ",
"d.d - g s g g n Q d.^ L n |.z.&XZXhXAXAXJXLXLXLXUX*Xj.Q x n h g g x B 9.t.OXnXnXa.t._.yXt.oXsXc g b x g g s s g h d 4 `         ",
"f.j - 5 9 g G G Q ( g n k.dX{.aXvXFXpX_.cXFXFXAX[.{.uX_.'.OXl.t.sXbXuXu.q.gXZXyXq.gXZXy.q.t.q.s h B g 9 9 9 9 9 g 3 3 `         ",
" Xj % > 6 9 7 w B C 7._.PXKX[.].p.pXFXKXAXpXFXPXvX_.DXIXsX0.4.t.nXZXa.4.l.gXnXa.q.yXuXl.a.y.n 9 g d.5 , 9 5 > 5 9 1 4 `         ",
"oXj % * 5 7 6 k f S s 0.a.uXPXLXbXvXLXLXiXpXLXIXaXAXZXuXi.u.u.l.sXXXt.a.XXsXXXy.s.b B s.g. X' ( M  XB , > 5 > , 2 < 4 V         ",
"oXj & * > 6 e e w c I g 0.{.KXKXpXKXLXAXpXbXyX].p.sXyX_.k.k.g.g.g.g.' ' oX*X X/ U Y U l U x l B x k z 0 , > : - , < ; V         ",
".Xj & * 5 0 9 6 3.a.uXyXuXyXk.p.bXPXFX[.j.H.v.h.h.h.j.) P P P q q w w q T .XI L ( I g 6 7 9 6 6 > = > , 9 h z h < < 4 V         ",
".Xj & * > 6 7 0 g x x x g w g p.iXyX).&X&X5X).v.h.R C L w q q C q C P e C Z 8 A A 8 8 8 7 e e 2 5 > 5 , k oXXXg.< < + B         ",
" Xj 0 h ( f 6 7 7 7 C Z T W Q h.v.H.v.v.h.! ! ~ R L K Z q q q q q 7 7 7 8 A D D D D D t t y y y = , : 0 z g.d.B s - ; `         ",
"oXB 0 j z U Z e J Z e Z Z P ~ ! ! ! ! ! ! ! ~ R R K Z C q q q 7 7 7 7 8 A A 8 A 8 8 8 8 e t 2 e 0 5 1 2 h h h h d h 4 `         ",
"  ` ; 3 3 d B N.eXeX=X=X=X=X5XcXMXBXGXBXMXzXxXxXxXcX6X6X6X6X6X6X6X6X6X6X6X6X6X6XhXhXhXZXhXhXZXZXZXhX6X6X6X=X=XT.v.h.O.D.        ",
"  ' & $ o @ r &.S.T.R.R.Q.!.>X3X7X8X9XjXqXkX9XkXlXlXmXmXmXmXmXmXzXmXmXmXVXNXCXCXDXDXHXJXIXIXHXHXHXBXmXzX8X2X>X(.n.O.o.          ",
"  _ % X - 2 0 ) ) [ T.R.Q.!.;X>X2X2X8X8X9X9XkXmXzXkXkXlXlXkXkXlXxXwXlXxXlXlXzXlXzXmXMXNXVXHXSXSXVXMXzX9X7X>X:XW.Y R +.          ",
"   X2 $ X + 1 { M.{ T.T.Q.~.;X<X2X3X7X7X8X8XqXlX9XkXxXkXkXkXkXkXkXkXkXxXlXkXzXzXMXMXkX9XzXDX  HXSXNXzXkX3X<X/.J.L R x.          ",
"  6Xx % $ + ; U { V.Y.T.T.Q.(.:X<X2X3X3X9X7X8XjX9XkXzXkXkXkXkXqXqXqXwXlXlXzXzXzXzXVXDXSXHXHXHXSXBXzXkX8X3X:X/.J.+.o.n.          ",
"    / $ $ - % P } ~ C.T.T.T.~./.2X2X3X3X3X3X7X9XkX9X8XkXqXkXkXwXwXqX9XkX8X8X9XjXzXzXkXmXDXHXHXDXNXzXkX8X2X:X(.~ w O.S.          ",
"    j.: : + o r &.&.C.Y.T.T.T.(.2X9X8X3X3X3X9XkX7X9XkXqXqXqXqXkXqX9X9XqXlXkXxXzXNXMXjXkXzXSXSXVXMXjX8X8X<X/.~.+.E O.            ",
"    j., % - : , ~ v.C.Y.T.T.T.(.>X8X8X3X2X3X7X8X9X8X9X9X9XqXqXqXkX9X9XkX3X7X9X9XkXMXNXSXHXSXNXMXzXjXjX3X:X/.K.L R x.            ",
"    6Xk : - - 1 } } $.E.I.T.T.T.;X2X8X9X8X8X8X8X7X3X8XqX9X9XqXqXwXqXqXkXkXkXkXzXNXjX<XjXzXBXNXzXkX8X3X<X/.W.b.L R n.            ",
"      z % : , ; Y M.S.S.T.T.T.T.(.<X8XjX9X9X8X9X7X7X9X7X8X9X9X9X9XqXqXkX4X0X9X9XjXzXzXzXzXzXzXkX9X3X2X/.W.W.%.L K h.            ",
"      _ X - 2 - Y { } D.D.I.T.T.(.:X2X3X2X2X2X7X7X4X7X9X7X7X8X8X8X8X8XkX9X9X9XkXzX8X4XjXkX9X7X3X2X:X(.T.C.m.Q 9 - '             ",
"      _ O $ - ; h { M.A.C.C.Y.R.R.:X:X>X>X>X3X2X2X1X3X3X3X3X8X3X7X7X8X9X8X0X4XjX9X8X9X8X8X8X7X2X<X:X/.(.P.^.W f 9 f.            ",
"      ( X X @ @ l { { m.V.A.A.Y.T.I.I.I.Y.T.Q.:X3X1X3X2X:X<X>X<X<X2X>X3X3X=X4X4X7X3X4X7X8X3X2X<X>X/./.T.P.L.Y J R P.            ",
"    &Xr X . ; - r { | N.m.V.C.A.R.-X,X>X,X>X,X4X1X-X>X<X>X>X<X>X>X>X:X2X2X1X3X4X7X3X2X2X2X2X2X>X-XR.I.V.M.| z f - Q             ",
"    ' X X ; < r  .j.| m.V.A.F.A.1XxXzXMXNXBXBX8X4X1X1X<X:X>X>X>X>X>X>X2X2X2X3X3X3X3X1X4X2X<X>X>X:XR.E.A.m.M.{ U ; ; j.          ",
"  .X; X + < l | j.N.m.A.D.F.F.$XjXMXDXHXHXHXHXVXzX2X>X<X>X>X<X<X>X<X>X2X2X3X3X3X7X3X3X8X8X8X3X3X2X>X:X-XF.V.M.| / ; 4           ",
"  m O . @ h | j.m.A.G.F.$XE.R.1XzXVXSXKXLXLXLXHXVX3X2X2X3X3X3X3X3X3X2X8XjX8X3X8X3X8X3X3X3X3X3X2X2X2X,X:X(.E.N.M. .U ; m         ",
" X; . # ; ] N.N.A.F.F.F.#X,X-X2XzXMXVXSXHXPXPXHXDXjX8X8X8X8X8X8X8X8X8X9XjXjX8XjX8X8XjX3X9XkX9X3X2X2X>X;X=XE.G.N.| / 4 4         ",
"' @ X @ 3 | N.G.F.eXE.#X-X:X>X>X2X3X3XjXjXkXzXmXzXxXjXjX8X8X3X3X3X3X8XjXjXkXjXjXjXjXjXjX8XkXzXzXkXjX8X2X,X-XQ.D.N. .; 1         ",
"d.# . # l j.m.A.F.F.$X#X#X-X,X<X9XqXkXkXkXxXkXkXkXqX9X7X7X3X3X3X3X3X3X7X9X9X9X9X9XqX9X9X9X8XqXlXzXzXzX9X8X2X>X!.^.$.L ^         ",
".X4 . @ l N.m.D.F.$X#X#X#X,X3X9X7X9XkXzXNXVXVXVXNXzXwXqXqX7X7X3X2X2X2X7X8X9X9X9X9XqXkXkXqXqX9XqXlXMXzXkX9X3X>X!.W.K.O.+.        ",
"  M . # r N.A.D.F.#X#X#X>X2X-XF.4XqXkXlXmXMXNXVXNXlXqXqX9X7X3X2X>X>X;X,X<X8X8XqXqXkXlXlXlXlXqX3XzXNXmXzX8X,XY.W.n.O.+.j.        ",
"    4 O o / } M.E.$X#X,X<X1X1X&.{ &.} | F.4XlXlXlXkX9X3X7X<X;X-XR.U.C.$.v.V.E.1X9XqX9X5X5X#X1XNXSXzX9X,Xb.+.E +.c.O.]           ",
"      m + * K R +.+.Z.!.>X<X3XkX2XF.) k 0 0 T $.Z.Z.&.%.%.%.Y J J G w 9 9 9 W Z.M.{ &.V.#XqXmX6X} [ W C 7 6 = 6 T (             ",
"          k 2 > & % * 6 P P Y $.A.$X-X^.$.Y h : & * = = * * * % & = : * * * : r Y $.^.U.&.] U 6 % % * * * % : <                 ",
"              0 $ ; - X $ * % & % * 0 P P J ' j.k % % & % % * & X X & & & 2 U ) W P 0 % & & T T r 6 & % 2                       ",
"                                                  U , X X % * $ & X $ % 2                                                       "
};
